HIERARCHY
ROOT Hips
{
    OFFSET 0.0 0.0 0.0
    CHANNELS 6 Xposition Yposition Zposition Zrotation Xrotation Yrotation
    JOINT LeftHipJoint
    {
        OFFSET 0.1 0.0 0.0
        CHANNELS 3 Zrotation Xrotation Yrotation
        JOINT LeftUpLeg
        {
            OFFSET 0.1321068773616618 0.0 0.0
            CHANNELS 3 Zrotation Xrotation Yrotation
            JOINT LeftLeg
            {
                OFFSET 0.0 0.0 -0.423269771660271
                CHANNELS 3 Zrotation Xrotation Yrotation
                JOINT LeftFoot
                {
                    OFFSET 0.0 0.0 -0.37444640248764777
                    CHANNELS 3 Zrotation Xrotation Yrotation
                    End Site
                    {
                        OFFSET 0.0 -0.1 0.0
                    }
                }
            }
        }
    }
    JOINT LowerBack
    {
        OFFSET 0.0 0.0 0.1
        CHANNELS 3 Zrotation Xrotation Yrotation
        JOINT Spine
        {
            OFFSET 0.0 0.0 0.3378588931174977
            CHANNELS 3 Zrotation Xrotation Yrotation
            JOINT Spine1
            {
                OFFSET 0.0 0.0 0.3364985540896413
                CHANNELS 3 Zrotation Xrotation Yrotation
                JOINT LeftShoulder
                {
                    OFFSET 0.1 0.0 0.0
                    CHANNELS 3 Zrotation Xrotation Yrotation
                    JOINT LeftArm
                    {
                        OFFSET 0.22131666870481445 0.0 0.0
                        CHANNELS 3 Zrotation Xrotation Yrotation
                        JOINT LeftForeArm
                        {
                            OFFSET 0.33532911951699784 0.0 0.0
                            CHANNELS 3 Zrotation Xrotation Yrotation
                            JOINT LeftHand
                            {
                                OFFSET 0.2810766116187594 0.0 0.0
                                CHANNELS 3 Zrotation Xrotation Yrotation
                                End Site
                                {
                                    OFFSET 0.1 0.0 0.0
                                }
                            }
                        }
                    }
                }
                JOINT Neck
                {
                    OFFSET 0.0 0.0 0.1
                    CHANNELS 3 Zrotation Xrotation Yrotation
                    JOINT Neck1
                    {
                        OFFSET 0.0 0.0 0.184724441947301
                        CHANNELS 3 Zrotation Xrotation Yrotation
                        End Site
                        {
                            OFFSET 0.0 0.0 0.17504727433689293
                        }
                    }
                }
                JOINT RightShoulder
                {
                    OFFSET -0.1 0.0 0.0
                    CHANNELS 3 Zrotation Xrotation Yrotation
                    JOINT RightArm
                    {
                        OFFSET -0.22131666870481445 0.0 0.0
                        CHANNELS 3 Zrotation Xrotation Yrotation
                        JOINT RightForeArm
                        {
                            OFFSET -0.33532911951699784 0.0 0.0
                            CHANNELS 3 Zrotation Xrotation Yrotation
                            JOINT RightHand
                            {
                                OFFSET -0.2810766116187594 0.0 0.0
                                CHANNELS 3 Zrotation Xrotation Yrotation
                                End Site
                                {
                                    OFFSET -0.1 0.0 0.0
                                }
                            }
                        }
                    }
                }
            }
        }
    }
    JOINT RightHipJoint
    {
        OFFSET -0.1 0.0 0.0
        CHANNELS 3 Zrotation Xrotation Yrotation
        JOINT RightUpLeg
        {
            OFFSET -0.1321068773616618 0.0 0.0
            CHANNELS 3 Zrotation Xrotation Yrotation
            JOINT RightLeg
            {
                OFFSET 0.0 0.0 -0.423269771660271
                CHANNELS 3 Zrotation Xrotation Yrotation
                JOINT RightFoot
                {
                    OFFSET 0.0 0.0 -0.37444640248764777
                    CHANNELS 3 Zrotation Xrotation Yrotation
                    End Site
                    {
                        OFFSET 0.0 -0.1 0.0
                    }
                }
            }
        }
    }
}
MOTION
Frames: 8
Frame Time: 0.03333333333333333
-0.45870277285575867 -0.3855585753917694 0.010846868157386733 -66.33848652866992 -80.18307864522913 -71.31967702204597 0.0 -4.9696166897867443e-17 0.0 1.7023120160292944 11.553623954997132 -39.69273655576843 1.7626873467778015 -1.3808884715491643 1.497759756611128 3.180554681463516e-15 1.590277340731758e-15 -4.4139062980501586e-32 0.0 -4.9696166897867443e-17 0.0 -0.6903031204313201 9.612065972737017 -1.0602175029188845 8.091465225709541 5.614726614168068e-15 1.1971264390528558e-15 -1.1927080055488184e-15 6.361109362927032e-15 7.951386703658791e-16 -43.966168050570396 11.42630095919021 74.9760891631152 -27.140855875075182 8.422381500758615e-15 -7.782708713475823e-15 0.0 0.0 3.1805546814635168e-15 -1.1927080055488184e-15 6.361109362927032e-15 7.951386703658791e-16 -15.825849271008684 5.548656169614877 -0.027569378797364773 -1.1927080055488184e-15 6.361109362927032e-15 7.951386703658791e-16 38.495158222351314 13.300814498651201 -80.85713813549754 19.859512037934294 6.814276356777664e-15 2.0359956145233706e-15 0.0 0.0 0.0 0.0 -4.9696166897867443e-17 0.0 -5.941319638129128 -26.850719645707727 47.154544075898784 46.951985719959616 30.30582441480929 -81.9904484543433 -1.5902773407317588e-15 -2.2069531490250793e-32 1.5902773407317588e-15
-0.46639591455459595 -0.39075931906700134 0.010976478457450818 -65.22121176086293 -79.91540239893277 -70.82688390241809 -3.975693351829397e-16 0.0 0.0 1.3423036737546041 11.340882894832452 -39.7800218397098 1.6532561045529173 -1.2390305287319234 1.4324388556387244 0.0 0.0 1.5902773407317584e-15 -3.975693351829397e-16 0.0 0.0 -0.77196015255893 9.611954082626173 -0.9263364538665659 8.351102112808682 -1.676938204090116e-14 -3.702374113912724e-16 2.2069531490250793e-32 6.361109362927035e-15 -3.975693351829397e-16 -44.571406859269935 11.322995880063619 74.52239998467002 -27.196595439425938 9.173956667530494e-15 -1.0870008311766031e-14 0.0 0.0 0.0 2.2069531490250793e-32 6.361109362927035e-15 -3.975693351829397e-16 -17.058461815162484 5.362634059773124 0.1858464142819513 2.2069531490250793e-32 6.361109362927035e-15 -3.975693351829397e-16 35.5701134257155 12.861460688152334 -80.2782915540254 19.860092622703508 -1.6454186958221292e-15 -9.39872066035875e-15 0.0 0.0 3.1805546814635168e-15 -3.975693351829397e-16 0.0 0.0 -5.88480106239129 -29.048163101224844 48.540198120212416 49.34815946024057 29.907475469207537 -85.32797406765073 0.0 0.0 -1.5902773407317584e-15
-0.47354599833488464 -0.3942022919654846 0.010931856930255841 -64.31440270209892 -79.63847939420772 -70.23792780288284 0.0 0.0 -1.987846675914698e-16 1.1949594040293716 11.11393477425677 -39.582756737337064 1.5464273025534234 -1.1717687898976727 0.8408060658093296 0.0 0.0 1.5902773407317584e-15 0.0 0.0 -1.987846675914698e-16 -0.7925625401761439 9.643320886200627 -1.0722608214627694 8.572892193291223 1.5045440413490506e-14 1.2644139752352788e-15 0.0 0.0 0.0 -45.037446736925105 11.149415842927924 74.17787522327785 -27.012277982615238 8.534971284539355e-15 5.321047452323988e-15 0.0 0.0 -3.1805546814635168e-15 0.0 0.0 0.0 -17.710497133084026 5.1678708344511985 0.363824661252728 0.0 0.0 0.0 32.7615513050247 12.488731826370325 -79.55827270717519 19.810441171283575 -1.0942307757884697e-15 -6.266288481743825e-15 0.0 0.0 -3.1805546814635168e-15 0.0 0.0 -1.987846675914698e-16 -5.803467615851636 -30.92260461303602 49.61966210554946 51.23640512042584 29.707495086074196 -87.83037976376242 0.0 0.0 7.951386703658792e-16
-0.4775550067424774 -0.3958119750022888 0.010834587737917852 -63.337093181715254 -79.33185429063266 -69.6935953897877 5.963540027744094e-16 2.069018577211012e-33 3.975693351829396e-16 0.8786589231387966 11.003882332891912 -39.182640233222344 1.4508907588598814 -1.1046032442783564 0.4770075718730396 0.0 0.0 -1.5902773407317584e-15 5.963540027744094e-16 2.069018577211012e-33 3.975693351829396e-16 -0.8756437999719014 9.703819064767197 -1.1332910729305576 8.778420320882503 -1.257884360815433e-15 4.952894083544147e-16 0.0 0.0 -3.975693351829396e-16 -45.56631925720925 10.782377154612742 74.04180069703895 -26.850936626665778 1.6167147420933966e-15 6.925739949752326e-15 0.0 0.0 0.0 0.0 0.0 -3.975693351829396e-16 -17.831378468560526 4.88429107945917 0.5722157453738377 0.0 0.0 -3.975693351829396e-16 30.2665842972529 12.12111260056763 -78.84426362526378 19.841964190869795 -1.0888042671121882e-14 1.1590889907005257e-14 0.0 0.0 3.1805546814635168e-15 5.963540027744094e-16 2.069018577211012e-33 3.975693351829396e-16 -5.234502197141809 -31.677419912423343 50.55834064966701 51.59938284342678 29.585123271040565 -89.24299502380869 0.0 0.0 7.951386703658792e-16
-0.478740394115448 -0.3961513936519623 0.010666012763977002 -62.39771146544981 -79.10718061100836 -69.25547071142665 -9.93923337957349e-16 1.8966003624434275e-32 -2.1866313435061676e-15 0.418473062475842 11.195133740364222 -38.628792152156066 1.653785798614482 -1.2616308121318072 0.21920289767757375 0.0 0.0 0.0 -9.93923337957349e-16 1.8966003624434275e-32 -2.1866313435061676e-15 -0.9663393591815154 9.792313270653871 -1.0728127477553515 8.920136071249473 3.814622193437165e-15 2.892672999427745e-15 0.0 0.0 -7.951386703658792e-16 -46.63542675237657 10.579406375655793 73.95936511433784 -26.690920668278057 -3.828808511109081e-15 2.360525693318682e-15 0.0 0.0 3.1805546814635168e-15 0.0 0.0 -7.951386703658792e-16 -18.18575496605759 4.637059327489068 0.7946224517880497 0.0 0.0 -7.951386703658792e-16 28.58414897756884 11.825985191362468 -78.26241117058132 19.8283439581595 -1.0952097527516982e-15 -6.2661174521864446e-15 0.0 0.0 0.0 -9.93923337957349e-16 1.8966003624434275e-32 -2.1866313435061676e-15 -4.636963427682714 -31.987313255644715 51.56928205375254 51.41914551319441 29.119744260527956 -89.95088658087485 0.0 0.0 -1.5902773407317584e-15
-0.4791263937950134 -0.39462074637413025 0.010458385571837377 -61.726428150436995 -78.82322944601844 -68.82879812225485 -5.963540027744096e-16 0.0 0.0 0.04000174812882572 11.409050448769342 -38.201320011789115 1.6545001078638755 -1.2757807178804665 -0.08455396367954643 0.0 0.0 1.5902773407317584e-15 -5.963540027744096e-16 0.0 0.0 -0.9916037494389317 9.854803379294125 -1.1491452656759997 9.104895397305066 5.863293217069339e-15 -5.2527831658641154e-15 -7.951386703658792e-16 6.4108055298248995e-15 1.5902773407317582e-15 -47.17000784185959 10.245615350466986 74.05418093343955 -26.257081721216647 6.917268585062889e-15 -1.6525845609225366e-15 6.3611093629270335e-15 3.531125038440127e-31 6.3611093629270335e-15 -7.951386703658792e-16 6.4108055298248995e-15 1.5902773407317582e-15 -18.164922783171065 4.312229166558057 0.8942160207178654 -7.951386703658792e-16 6.4108055298248995e-15 1.5902773407317582e-15 26.837768528064455 11.449691389079607 -77.79570586679701 19.685042022381108 -1.934613290203093e-14 1.2837742323935416e-16 0.0 0.0 0.0 -5.963540027744096e-16 0.0 0.0 -4.262473258118882 -31.82581936601364 51.792564509146686 50.65849929492693 28.78493889929678 -89.58797111732324 0.0 0.0 1.5902773407317584e-15
-0.4768558442592621 -0.3910534381866455 0.010182399302720975 -60.410764866822944 -78.57933274870435 -67.90432736620086 -9.93923337957349e-16 2.0690185772110117e-32 -2.3854160110976376e-15 -0.36287829797596577 11.503850601689656 -37.52108292546833 1.8904835717921633 -1.4780783138120959 -0.0574060914842435 0.0 0.0 3.1805546814635168e-15 -9.93923337957349e-16 2.0690185772110117e-32 -2.3854160110976376e-15 -1.019375269388992 9.828854358174596 -0.9836340044917884 9.264418026445803 -8.846385657998616e-15 -8.787200514718189e-16 -7.95138670365879e-16 6.361109362927032e-15 4.4139062980501586e-32 -47.835409829343924 10.027046742070942 74.15193093186485 -25.692645329973857 1.1696626137004561e-14 5.929562749595716e-15 0.0 0.0 0.0 -7.95138670365879e-16 6.361109362927032e-15 4.4139062980501586e-32 -18.104556166351784 3.989870715478017 0.8288917166845567 -7.95138670365879e-16 6.361109362927032e-15 4.4139062980501586e-32 25.802539572915865 11.187017379677027 -77.56537965468563 19.71069571763084 6.811626530156589e-15 2.0448433736020885e-15 0.0 0.0 3.1805546814635168e-15 -9.93923337957349e-16 2.0690185772110117e-32 -2.3854160110976376e-15 -3.8520631047312777 -31.570000183643682 52.073450720149815 49.528274086725176 28.269779425681673 -88.64799070509795 0.0 0.0 -2.3854160110976376e-15
-0.4731427729129791 -0.3860083818435669 0.009937031194567634 -59.368060109736575 -78.46802841533922 -67.08016054900268 -5.963540027744094e-16 -1.034509288605506e-33 1.987846675914698e-16 -0.6239600631341494 11.643929427216303 -36.91481989709085 2.272403049906624 -1.8275421947069126 0.13365001645939859 0.0 0.0 -3.1805546814635168e-15 -5.963540027744094e-16 -1.034509288605506e-33 1.987846675914698e-16 -1.0239781723956158 9.82483543136454 -0.9773417270660876 9.313103221390874 5.8793042693146825e-15 -1.2766504911037316e-15 0.0 0.0 0.0 -48.42106962991132 9.79417667393633 74.37680246385266 -25.089355501514 -6.209250194337498e-15 -1.38163828523884e-15 0.0 0.0 0.0 0.0 0.0 0.0 -17.850899939606105 3.690566823266237 0.9149582246767342 0.0 0.0 0.0 25.416485278629562 11.038563419235832 -77.44415458277933 19.573273793944637 -1.2537079524180393e-14 2.162518511562059e-15 0.0 0.0 0.0 -5.963540027744094e-16 -1.034509288605506e-33 1.987846675914698e-16 -3.3931083676171925 -30.618409546488532 52.25388667368976 47.703220147921094 27.73069125061619 -87.20989147118655 0.0 0.0 -1.5902773407317584e-15
